<?xml version="1.0" encoding="UTF-8"?>
<svg id="Layer_2" data-name="Layer 2" xmlns="http://www.w3.org/2000/svg" xmlns:xlink="http://www.w3.org/1999/xlink" viewBox="0 0 104 85.8">
  <defs>
    <style>
      .cls-1 {
        fill: #fff;
      }

      .cls-1, .cls-2 {
        fill-rule: evenodd;
      }

      .cls-2 {
        fill: url(#_未命名的渐变_11);
      }
    </style>
    <linearGradient id="_未命名的渐变_11" data-name="未命名的渐变 11" x1="85.89" y1="29.27" x2="4.43" y2="86.31" gradientUnits="userSpaceOnUse">
      <stop offset="0" stop-color="#fff" stop-opacity=".4"/>
      <stop offset="1" stop-color="#fff"/>
    </linearGradient>
  </defs>
  <g id="_图层_1" data-name="图层 1">
    <path class="cls-2" d="M59.6,70.28c5.58-.27,10.59-3.5,13.11-8.46l8.4-16.54,7.04-12.77c-27.93,5.6-56.65-.07-68.81,21.31-4.38,7.7-15.28,31.98-15.28,31.98,8.55-9.4,14.62-14.12,26.35-14.12l29.19-1.39Z"/>
    <path class="cls-1" d="M54.05,42.38c19.02,0,36.26,2.63,40.66-5.71.24-.45.39-.94.51-1.43L104,0C84.01,9.04,37.27,3.08,17.52,9.17c-5.06,1.56-8.93,5.65-10.3,10.75L1.95,39.58c-1.81,6.75-6.41,19.28,10.64,25.44,0,0-6.48-5.36-3.24-14.17,1.42-3.55,4.17-5.83,6.93-7.03,4.2-1.82,8.6-1.53,11.67-1.43,6.52.21,26.1,0,26.1,0Z"/>
  </g>
</svg>